<svg width="74" height="80" viewBox="0 0 74 80" fill="none" xmlns="http://www.w3.org/2000/svg">
<g id="colour ">
<g id="inner cube">
<path id="Vector 3" d="M54.9296 48.093L36.8146 37.3573L18.3922 48.0674L37.1221 58.9825L54.9296 48.093Z" fill="#8855C4"/>
<path id="Vector 1" d="M54.9296 48.093L36.789 37.3829V16.0652L54.9296 26.3017V48.093Z" fill="#2B0D4F"/>
<path id="Vector 2" d="M36.789 37.3829V16.0652L18.3922 26.0751V48.0674L36.789 37.3829Z" fill="#4B207A"/>
</g>
<g id="Group 3">
<g id="right leaf">
<path id="Vector 13" d="M65.076 21.5227C65.0846 18.1747 65.0965 11.4275 65.076 11.2225L73.8389 15.937V26.3909L65.076 21.5227Z" fill="#4B207A"/>
<path id="Vector 12" d="M64.7686 52.5769L64.7173 42.533L73.7364 47.8624L64.7686 52.5769Z" fill="#2B0D4F"/>
<path id="Vector 10" d="M46.628 31.8741L45.9619 0L57.9018 6.20059V25.4173L73.7364 34.8463V47.8624L46.628 31.8741Z" fill="#6F389F"/>
<path id="Vector 11" d="M46.1924 10.4026L45.9618 0L37.2502 5.15008L46.1924 10.4026Z" fill="#2B0D4F"/>
</g>
<g id="left leaf ">
<path id="Vector 9" d="M0.200439 27.2621V16.757L9.37321 11.6776V21.9327L0.200439 27.2621Z" fill="#4B207A"/>
<path id="Vector 7" d="M9.04013 52.9869L0.0979614 47.8624L9.04013 42.8661V52.9869Z" fill="#2B0D4F"/>
<path id="Vector 8" d="M27.9237 10.2489L27.8725 0L36.789 5.15008L27.9237 10.2489Z" fill="#2B0D4F"/>
<path id="Vector 4" d="M28.0262 32.2841L0.0979445 47.8624L0 34.4876L15.9838 25.1098V6.76428L27.8725 0L28.0262 32.2841Z" fill="#683B9B"/>
</g>
<g id="bottom leaf">
<path id="Vector 16" d="M36.9171 69.5389L28.1799 74.6634L36.6865 79.9928L45.6031 74.6634L36.9171 69.5389Z" fill="#4B207A"/>
<path id="Vector 15" d="M64.5636 52.9869L64.7686 63.4408L55.9033 58.4701L64.5636 52.9869Z" fill="#2B0D4F"/>
<path id="Vector 14" d="M9.06573 63.6458L9.27071 53.4481L18.1873 58.4957L9.06573 63.6458Z" fill="#2B0D4F"/>
<path id="Vector 6" d="M21.2619 70.6724L37.0196 61.3397L52.9853 70.7175L64.7686 63.4408L37.0196 47.8624L9.06573 63.6457L21.2619 70.6724Z" fill="#6F389F"/>
</g>
</g>
</g>
</svg>
