<svg width="223" height="241" viewBox="0 0 223 241" fill="none" xmlns="http://www.w3.org/2000/svg">
<g id="white">
<g id="inner cube">
<path id="Vector 3" d="M165.876 144.894L111.3 112.549L55.7972 144.817L112.226 177.701L165.876 144.894Z" fill="#CACACA"/>
<path id="Vector 1" d="M165.877 144.894L111.223 112.627V48.4011L165.877 79.2415V144.894Z" fill="#666666"/>
<path id="Vector 2" d="M111.222 112.627V48.4011L55.7968 78.5588V144.817L111.222 112.627Z" fill="#A9A9A9"/>
</g>
<g id="right leaf">
<path id="Vector 13" d="M196.445 64.8434C196.471 54.7567 196.507 34.4288 196.445 33.8113L222.845 48.015V79.5103L196.445 64.8434Z" fill="#A9A9A9"/>
<path id="Vector 12" d="M195.518 158.402L195.364 128.142L222.536 144.199L195.518 158.402Z" fill="#666666"/>
<path id="Vector 10" d="M140.865 96.0295L138.858 -0.000244141L174.831 18.6808V76.5765L222.537 104.984V144.199L140.865 96.0295Z" fill="white"/>
<path id="Vector 11" d="M139.552 31.3407L138.857 -0.000244141L112.611 15.5158L139.552 31.3407Z" fill="#666666"/>
</g>
<g id="left leaf ">
<path id="Vector 9" d="M0.988647 82.1348V50.4851L28.6242 35.182V66.0784L0.988647 82.1348Z" fill="#A9A9A9"/>
<path id="Vector 7" d="M27.621 159.638L0.680145 144.199L27.621 129.146V159.638Z" fill="#666666"/>
<path id="Vector 8" d="M84.5125 30.8775L84.3581 -0.000244141L111.222 15.5158L84.5125 30.8775Z" fill="#666666"/>
<path id="Vector 4" d="M84.8217 97.2646L0.679882 144.199L0.384796 103.903L48.5404 75.6502V20.3791L84.3586 -0.000244141L84.8217 97.2646Z" fill="white"/>
</g>
<g id="bottom leaf">
<path id="Vector 16" d="M111.609 209.505L85.2854 224.943L110.914 241L137.778 224.943L111.609 209.505Z" fill="#A9A9A9"/>
<path id="Vector 15" d="M194.901 159.638L195.518 191.133L168.809 176.157L194.901 159.638Z" fill="#666666"/>
<path id="Vector 14" d="M27.6977 191.751L28.3152 161.028L55.1789 176.235L27.6977 191.751Z" fill="#666666"/>
<path id="Vector 6" d="M64.4426 212.921L111.917 184.803L160.018 213.056L195.519 191.133L111.917 144.199L27.6981 191.751L64.4426 212.921Z" fill="white"/>
</g>
</g>
</svg>
